<svg xmlns="http://www.w3.org/2000/svg" viewBox="0 0 612 792"><defs><style>.cls-1{fill:#fff;}.cls-2{fill:#6a300d;}.cls-3{fill:#011321;}.cls-4{fill:#1c3e02;}</style></defs><title>logo MK</title><g id="Layer_6" data-name="Layer 6"><rect class="cls-1" width="612" height="792"/></g><g id="Layer_5" data-name="Layer 5"><polygon class="cls-2" points="239.14 612.07 258.6 576.9 240.48 576.9 222.88 611.64 240.58 647.26 258.07 647.26 239.14 612.07"/><polygon class="cls-2" points="163.72 647.26 163.72 576.9 184.35 576.9 200.72 608.13 217.61 576.9 233.61 576.9 206.91 629.7 194.8 629.7 178.78 598.33 178.78 647.26 163.72 647.26"/><path class="cls-3" d="M288.23,611.45a16.29,16.29,0,1,1,14.31-24.25c-2.78,1.44-3,1.57-6.1,3.06a9.51,9.51,0,0,0-8.21-4.64,9.54,9.54,0,1,0,0,19.08,9.51,9.51,0,0,0,8.48-5c3.1,1.57,3.19,1.75,6.11,3.06A16.4,16.4,0,0,1,288.23,611.45Z"/><path class="cls-3" d="M321.83,611.77a16.63,16.63,0,1,1,16.86-16.61A16.71,16.71,0,0,1,321.83,611.77Zm-9.94-16.61a9.89,9.89,0,1,0,9.94-9.85A10,10,0,0,0,311.89,595.16Z"/><path class="cls-3" d="M349,605.38v6h-6.93V579.1h23.75V585H349v7.24h14.86v6.26H349Z"/><path class="cls-3" d="M376.12,605.38v6h-6.93V579.1h23.75V585H376.12v7.24H391v6.26H376.12Z"/><path class="cls-3" d="M403.24,598.54v6.84h18.37v5.94h-25.3V579.1h23.75V585H403.24v7.24H418.1v6.26Z"/><path class="cls-3" d="M432.87,598.54v6.84h18.37v5.94h-25.3V579.1h23.75V585H432.87v7.24h14.86v6.26Z"/><path class="cls-2" d="M277.44,634.42H273v-3.08h12.59v3.08h-4.47v13.1h-3.72Z"/><path class="cls-2" d="M302,639.26c0,5.31-3.25,8.53-8,8.53s-7.71-3.63-7.71-8.24c0-4.85,3.14-8.47,8-8.47C299.3,631.08,302,634.8,302,639.26Zm-11.83.22c0,3.17,1.5,5.4,4,5.4s3.94-2.35,3.94-5.5c0-2.9-1.41-5.4-4-5.4S290.21,636.34,290.21,639.48Zm5.34-12,2.46,2.93h-2.6L294.19,629h0l-1.22,1.49h-2.6l2.45-2.93Z"/><path class="cls-2" d="M308.34,631.34v16.18h-3.72V631.34Z"/><path class="cls-2" d="M328.79,647.07a10.82,10.82,0,0,1-4.21.69c-5.66,0-8.58-3.48-8.58-8.09,0-5.52,4-8.59,8.95-8.59a9.65,9.65,0,0,1,4,.72l-.75,2.9a8.16,8.16,0,0,0-3.11-.6c-2.95,0-5.23,1.76-5.23,5.36,0,3.24,1.94,5.28,5.25,5.28a9.32,9.32,0,0,0,3.09-.53Z"/><path class="cls-2" d="M335.08,631.34v6.22h6.11v-6.22h3.69v16.18h-3.69v-6.77h-6.11v6.77h-3.71V631.34Z"/><path class="cls-2" d="M349.28,630.22c.37-1.08,1.19-1.28,1.19-2.07a.69.69,0,0,0-.72-.72c-.47,0-.88.48-1.1.82l-1.17-.7a3.2,3.2,0,0,1,3-1.89,2.22,2.22,0,0,1,2.36,2c0,1.41-1.17,1.68-1.82,2.88Zm2.7,1.12v16.18h-3.72V631.34Z"/><path class="cls-2" d="M360.39,631.34h3.72v13.11h6.52v3.07H360.39Z"/><path class="cls-2" d="M376.93,643.37l-1.17,4.15h-3.84l5-16.18h4.86l5.08,16.18h-4l-1.26-4.15Zm2.18-15.84,2.05,2.9h-3l-3-2.9Zm2,13.1-1-3.43c-.29-1-.58-2.16-.83-3.12h0c-.25,1-.49,2.18-.76,3.12l-1,3.43Z"/><path class="cls-2" d="M406.29,647.07a10.8,10.8,0,0,1-4.2.69c-5.67,0-8.58-3.48-8.58-8.09,0-5.52,4-8.59,8.94-8.59a9.74,9.74,0,0,1,4,.72l-.76,2.9a8.12,8.12,0,0,0-3.11-.6c-2.94,0-5.22,1.76-5.22,5.36,0,3.24,1.94,5.28,5.25,5.28a9.31,9.31,0,0,0,3.08-.53Z"/><path class="cls-2" d="M412.93,643.37l-1.17,4.15h-3.84l5-16.18h4.86l5.08,16.18h-4l-1.26-4.15Zm4.16-2.74-1-3.43c-.29-1-.58-2.16-.82-3.12h-.05c-.24,1-.49,2.18-.75,3.12l-1,3.43Z"/><path class="cls-2" d="M425.21,631.34h10v3h-6.29V638h5.88v3h-5.88v6.5h-3.72Z"/><path class="cls-2" d="M447.91,640.68h-6v3.84h6.74v3H438.17V631.34h10.11v3h-6.4v3.37h6Zm-.43-13.15-3,3h-2.95l2-3Z"/><path class="cls-2" d="M308.1,144.21s12.59,18.59,5.49,46.14c-5.49,19.79-25.84,44.29-31.84,52.54S266.25,262.06,262,269.6s-16,21.29-18,46c-2.17,32.33,6.78,73.5,63.39,80.5,0,0-55.16-30-19.77-87.42S339,240.64,343.38,201.39C345.17,187,339.21,161.41,308.1,144.21Z"/><path class="cls-2" d="M271,256.8s-20.26,23.92-24.25,43.38l12.13-3,20.38-15Z"/><path class="cls-2" d="M251.23,287.25S225,337.31,263,377.23l7.5-70.59Z"/><path class="cls-4" d="M356.59,225.23a46.14,46.14,0,0,1-14.3,46.67c-22.79,20.41-44.47,42.23-45.63,64.86S308,375.29,324,382.41c0,0-29.27-37.51,29.93-82.89C370.17,287.14,388.44,254.07,356.59,225.23Z"/><path class="cls-4" d="M365.35,287.25s-4.18,7.27-15.52,16.57c-3.33,3.16-15,10.34-24.26,25.66l-5.07-6.17,12.83-23.13,21-17.37Z"/><path class="cls-4" d="M299.33,324.16s5.53-16.55,23.34-33.59"/><path class="cls-3" d="M394.71,375.94h45.46s11.47-.8,11.47,20.2-11.47,20.2-11.47,20.2H394.71s-4.69,29.9-33.2,51.22S291,493.89,254.8,468.7s-37-67.72-37-71.06.1-23.94,10.15-43c0,0-6.14,27.35,20.28,41.47,0,0-1.43,19.3,13.68,38.11S304,460.08,323.71,454s41-22,44.15-53.83c2-19.89-10.16-44.42-26.14-53.6L362,325.08S387.67,343.24,394.71,375.94Z"/><path class="cls-2" d="M410.41,345.89h33.15s-11-35.18-43.14-61.59l-21,22.23S400.57,323.39,410.41,345.89Z"/><path class="cls-2" d="M215,283.76s-11.54,21.28,1.54,41.08c0,0-21,25.35-23.66,59.32s8.07,59.67,19.71,76.2,40.78,47.92,91.4,49.54c17.63.62,39.63-3.17,61.9-16.3s38.59-35.41,43.67-47.21h33.36s-12.24,37.9-49.42,65.33-81.26,33.55-117.8,24.9-58.55-26.15-75.3-43.73-30.53-46-34.64-67.2S159.48,380,172,343.81c0,0,8.66-23.31,24.52-41.68C196.51,302.13,207,290,215,283.76Z"/></g></svg>